<svg width="18" height="18" viewBox="0 0 18 18" fill="none" xmlns="http://www.w3.org/2000/svg">
<path id="Icon" fill-rule="evenodd" clip-rule="evenodd" d="M4.40479 4.50366C4.15876 4.74969 4.15876 5.14858 4.40479 5.39462L7.91911 8.90894L4.45428 12.3738C4.18092 12.6471 4.18092 13.0903 4.45428 13.3637C4.72765 13.6371 5.17087 13.6371 5.44423 13.3637L8.90906 9.89889L12.4234 13.4132C12.6694 13.6592 13.0683 13.6592 13.3143 13.4132C13.5604 13.1672 13.5604 12.7683 13.3143 12.5223L9.80001 9.00793L13.3638 5.44411C13.6372 5.17075 13.6372 4.72753 13.3638 4.45416C13.0905 4.1808 12.6472 4.1808 12.3739 4.45416L8.81006 8.01798L5.29574 4.50366C5.04971 4.25763 4.65082 4.25763 4.40479 4.50366Z" fill="#555555"/>
</svg>
